<svg viewBox="0 0 960 700" xmlns="http://www.w3.org/2000/svg" width="960" height="700">
<defs>
  <linearGradient id="gpi" x1="0%" y1="0%" x2="100%" y2="100%"><stop offset="0%" stop-color="#071e3d"/><stop offset="100%" stop-color="#0a2d5a"/></linearGradient>
  <linearGradient id="ggemini" x1="0%" y1="0%" x2="100%" y2="100%"><stop offset="0%" stop-color="#0d0828"/><stop offset="100%" stop-color="#1a0e45"/></linearGradient>
  <linearGradient id="gweather" x1="0%" y1="0%" x2="100%" y2="100%"><stop offset="0%" stop-color="#041c10"/><stop offset="100%" stop-color="#083020"/></linearGradient>
  <linearGradient id="gdash" x1="0%" y1="0%" x2="100%" y2="100%"><stop offset="0%" stop-color="#1a1005"/><stop offset="100%" stop-color="#2a1a08"/></linearGradient>
  <linearGradient id="gssh" x1="0%" y1="0%" x2="100%" y2="100%"><stop offset="0%" stop-color="#120825"/><stop offset="100%" stop-color="#1e1040"/></linearGradient>
  <linearGradient id="geq" x1="0%" y1="0%" x2="100%" y2="100%"><stop offset="0%" stop-color="#1a0505"/><stop offset="100%" stop-color="#2d0808"/></linearGradient>
  <linearGradient id="gpollen" x1="0%" y1="0%" x2="100%" y2="100%"><stop offset="0%" stop-color="#1a1200"/><stop offset="100%" stop-color="#2a2000"/></linearGradient>
  <linearGradient id="gconfig" x1="0%" y1="0%" x2="100%" y2="100%"><stop offset="0%" stop-color="#0a0a20"/><stop offset="100%" stop-color="#141430"/></linearGradient>
</defs>

<rect width="960" height="700" fill="#020818"/>

<!-- Grid -->
<g opacity=".02" stroke="#4dc8ff" stroke-width=".5">
  <line x1="0" y1="80" x2="960" y2="80"/><line x1="0" y1="160" x2="960" y2="160"/><line x1="0" y1="240" x2="960" y2="240"/><line x1="0" y1="320" x2="960" y2="320"/><line x1="0" y1="400" x2="960" y2="400"/><line x1="0" y1="480" x2="960" y2="480"/><line x1="0" y1="560" x2="960" y2="560"/><line x1="0" y1="640" x2="960" y2="640"/>
  <line x1="96" y1="0" x2="96" y2="700"/><line x1="192" y1="0" x2="192" y2="700"/><line x1="288" y1="0" x2="288" y2="700"/><line x1="384" y1="0" x2="384" y2="700"/><line x1="480" y1="0" x2="480" y2="700"/><line x1="576" y1="0" x2="576" y2="700"/><line x1="672" y1="0" x2="672" y2="700"/><line x1="768" y1="0" x2="768" y2="700"/><line x1="864" y1="0" x2="864" y2="700"/>
</g>

<!-- Title -->
<text x="480" y="28" text-anchor="middle" font-family="monospace" font-size="14" fill="#4dc8ff" font-weight="700" letter-spacing="3">GEMINIPI — SYSTEM ARCHITECTURE v3.0</text>
<line x1="60" y1="38" x2="900" y2="38" stroke="#0a2a4a" stroke-width="1"/>

<!-- Flow lines -->
<line x1="122" y1="310" x2="150" y2="295" stroke="#ffaa44" stroke-width="2" stroke-dasharray="6 4"/>
<line x1="292" y1="288" x2="358" y2="288" stroke="#4dc8ff" stroke-width="2" stroke-dasharray="6 4"/>
<polygon points="354,283 365,288 354,293" fill="#4dc8ff" opacity=".8"/>
<line x1="358" y1="318" x2="292" y2="318" stroke="#00e5a0" stroke-width="2" stroke-dasharray="6 4"/>
<polygon points="296,313 285,318 296,323" fill="#00e5a0" opacity=".8"/>
<path d="M600 260 Q650 248 698 240" stroke="#4dc8ff" stroke-width="2" stroke-dasharray="6 4" fill="none"/>
<polygon points="694,235 706,240 694,245" fill="#4dc8ff" opacity=".8"/>
<path d="M698 265 Q650 278 600 278" stroke="#00e5a0" stroke-width="2" stroke-dasharray="6 4" fill="none"/>
<polygon points="604,273 592,278 604,283" fill="#00e5a0" opacity=".8"/>
<path d="M520 420 Q558 458 598 474" stroke="#4dc8ff" stroke-width="1.5" stroke-dasharray="5 4" fill="none"/>
<polygon points="595,469 606,476 599,484" fill="#4dc8ff" opacity=".7"/>
<path d="M583 474 Q542 448 505 420" stroke="#00e5a0" stroke-width="1.5" stroke-dasharray="5 4" fill="none"/>
<polygon points="508,415 497,421 505,428" fill="#00e5a0" opacity=".7"/>
<path d="M595 310 Q678 330 718 360" stroke="#ffdd44" stroke-width="1.5" stroke-dasharray="5 4" fill="none"/>
<polygon points="715,355 726,362 717,368" fill="#ffdd44" opacity=".7"/>
<path d="M708 375 Q663 348 588 325" stroke="#ffdd44" stroke-width="1.5" stroke-dasharray="5 4" fill="none"/>
<polygon points="591,320 580,326 588,333" fill="#ffdd44" opacity=".7"/>
<path d="M466 570 Q466 510 466 422" stroke="#ffaa44" stroke-width="1.5" stroke-dasharray="5 4" fill="none"/>
<polygon points="461,425 466,413 471,425" fill="#ffaa44" opacity=".7"/>
<path d="M454 422 Q454 510 454 570" stroke="#ffaa44" stroke-width="1.5" stroke-dasharray="5 4" fill="none"/>
<polygon points="449,567 454,579 459,567" fill="#ffaa44" opacity=".7"/>
<path d="M308 128 Q338 158 372 210" stroke="#cc88ff" stroke-width="1.5" stroke-dasharray="4 5" fill="none"/>
<polygon points="369,205 374,217 380,206" fill="#cc88ff" opacity=".7"/>
<path d="M148 530 Q200 490 356 412" stroke="#ff4444" stroke-width="2" stroke-dasharray="6 4" fill="none"/>
<polygon points="353,407 364,413 356,420" fill="#ff4444" opacity=".8"/>
<path d="M356 480 Q358 460 363 422" stroke="#8888ff" stroke-width="1.5" stroke-dasharray="5 4" fill="none"/>
<polygon points="358,425 363,413 368,425" fill="#8888ff" opacity=".7"/>
<path d="M478 200 Q478 162 478 140" stroke="#00e5a0" stroke-width="1.5" stroke-dasharray="5 4" fill="none"/>
<polygon points="473,143 478,131 483,143" fill="#00e5a0" opacity=".7"/>

<!-- Flow labels -->
<text x="108" y="260" text-anchor="middle" font-family="monospace" font-size="8" fill="#ffaa44">声で呼びかけ</text>
<text x="320" y="275" text-anchor="middle" font-family="monospace" font-size="8" fill="#4dc8ff">音声入力(USB)</text>
<text x="320" y="334" text-anchor="middle" font-family="monospace" font-size="8" fill="#00e5a0">音声再生(USB)</text>
<text x="656" y="234" text-anchor="middle" font-family="monospace" font-size="8" fill="#4dc8ff">テキスト送信</text>
<text x="656" y="292" text-anchor="middle" font-family="monospace" font-size="8" fill="#00e5a0">返答受信</text>
<text x="574" y="450" text-anchor="middle" font-family="monospace" font-size="8" fill="#4dc8ff">天気取得</text>
<text x="678" y="342" text-anchor="middle" font-family="monospace" font-size="8" fill="#ffdd44">花粉取得</text>
<text x="482" y="500" text-anchor="middle" font-family="monospace" font-size="8" fill="#ffaa44">Wi-Fi制御</text>
<text x="322" y="162" text-anchor="middle" font-family="monospace" font-size="8" fill="#cc88ff">SSH管理</text>
<text x="216" y="478" text-anchor="middle" font-family="monospace" font-size="8" fill="#ff4444">WebSocket</text>
<text x="336" y="450" text-anchor="middle" font-family="monospace" font-size="8" fill="#8888ff">設定読込</text>
<text x="508" y="158" text-anchor="middle" font-family="monospace" font-size="8" fill="#00e5a0">毎朝7:30自動</text>

<!-- Step badges -->
<circle cx="136" cy="248" r="10" fill="#ffaa44" opacity=".9"/><text x="136" y="252" text-anchor="middle" font-family="monospace" font-size="9" fill="#020818" font-weight="700">1</text>
<circle cx="320" cy="264" r="10" fill="#4dc8ff" opacity=".9"/><text x="320" y="268" text-anchor="middle" font-family="monospace" font-size="9" fill="#020818" font-weight="700">2</text>
<circle cx="474" cy="196" r="10" fill="#4dc8ff" opacity=".9"/><text x="474" y="200" text-anchor="middle" font-family="monospace" font-size="9" fill="#020818" font-weight="700">3</text>
<circle cx="654" cy="222" r="10" fill="#4dc8ff" opacity=".9"/><text x="654" y="226" text-anchor="middle" font-family="monospace" font-size="9" fill="#020818" font-weight="700">4</text>
<circle cx="654" cy="286" r="10" fill="#00e5a0" opacity=".9"/><text x="654" y="290" text-anchor="middle" font-family="monospace" font-size="9" fill="#020818" font-weight="700">5</text>
<circle cx="320" cy="332" r="10" fill="#00e5a0" opacity=".9"/><text x="320" y="336" text-anchor="middle" font-family="monospace" font-size="9" fill="#020818" font-weight="700">6</text>

<!-- USER -->
<circle cx="80" cy="310" r="46" fill="#061520" stroke="#4dc8ff" stroke-width="1.5" opacity=".9"/>
<circle cx="80" cy="292" r="12" fill="none" stroke="#4dc8ff" stroke-width="1.5"/>
<path d="M55 326 Q55 308 80 308 Q105 308 105 326" fill="none" stroke="#4dc8ff" stroke-width="1.5"/>
<path d="M109 298 Q114 306 109 314" fill="none" stroke="#ffaa44" stroke-width="1.8"/>
<path d="M116 294 Q123 306 116 318" fill="none" stroke="#ffaa44" stroke-width="1.3" opacity=".5"/>
<text x="80" y="368" text-anchor="middle" font-family="monospace" font-size="10" fill="#4dc8ff">ユーザー</text>

<!-- AT-CSP1 -->
<rect x="150" y="236" width="142" height="126" rx="10" fill="url(#gpi)" stroke="#4dc8ff" stroke-width="1.5"/>
<rect x="150" y="236" width="142" height="5" rx="3" fill="#4dc8ff" opacity=".35"/>
<rect x="208" y="255" width="18" height="28" rx="9" fill="none" stroke="#ffaa44" stroke-width="1.5"/>
<path d="M199 277 Q199 294 218 294 Q237 294 237 277" fill="none" stroke="#ffaa44" stroke-width="1.5"/>
<line x1="218" y1="294" x2="218" y2="302" stroke="#ffaa44" stroke-width="1.5"/>
<path d="M168 277 Q164 285 168 293" fill="none" stroke="#00e5a0" stroke-width="1.8"/>
<path d="M161 273 Q155 285 161 297" fill="none" stroke="#00e5a0" stroke-width="1.2" opacity=".5"/>
<rect x="178" y="308" width="70" height="18" rx="3" fill="#030d1e" stroke="#4dc8ff" stroke-width="1"/>
<text x="213" y="320" text-anchor="middle" font-family="monospace" font-size="7" fill="#4dc8ff">USB TYPE-A</text>
<text x="221" y="262" text-anchor="middle" font-family="monospace" font-size="9" fill="#e0f0ff">AT-CSP1</text>
<text x="221" y="354" text-anchor="middle" font-family="monospace" font-size="9" fill="#4dc8ff">スピーカーフォン</text>
<text x="221" y="367" text-anchor="middle" font-family="monospace" font-size="7" fill="#3a7a9a">AUDIO IN / OUT</text>

<!-- RASPBERRY PI 3 -->
<rect x="358" y="200" width="242" height="222" rx="10" fill="url(#gpi)" stroke="#4dc8ff" stroke-width="2.5"/>
<rect x="358" y="200" width="242" height="7" rx="5" fill="#4dc8ff" opacity=".45"/>
<circle cx="479" cy="238" r="20" fill="#040e20" stroke="#4dc8ff" stroke-width="1.5"/>
<text x="479" y="243" text-anchor="middle" font-family="monospace" font-size="13" fill="#4dc8ff" font-weight="700">π</text>
<text x="479" y="276" text-anchor="middle" font-family="monospace" font-size="11" fill="#4dc8ff" font-weight="700">RASPBERRY PI 3</text>
<text x="479" y="292" text-anchor="middle" font-family="monospace" font-size="8" fill="#3a7a9a">Python 3.13 · Debian 13</text>
<rect x="372" y="302" width="96" height="28" rx="4" fill="#041020" stroke="#4dc8ff" stroke-width="1"/>
<text x="420" y="313" text-anchor="middle" font-family="monospace" font-size="8" fill="#aaddff">音声認識</text>
<text x="420" y="324" text-anchor="middle" font-family="monospace" font-size="6" fill="#4dc8ff">speech_recognition</text>
<rect x="478" y="302" width="106" height="28" rx="4" fill="#041020" stroke="#00e5a0" stroke-width="1"/>
<text x="531" y="313" text-anchor="middle" font-family="monospace" font-size="8" fill="#aaffdd">音声合成</text>
<text x="531" y="324" text-anchor="middle" font-family="monospace" font-size="6" fill="#00e5a0">gTTS + sox 1.4x</text>
<rect x="372" y="338" width="212" height="20" rx="4" fill="#030b1a" stroke="#4dc8ff" stroke-width="1"/>
<text x="478" y="351" text-anchor="middle" font-family="monospace" font-size="7" fill="#5aaccc">smart_speaker.py · dashboard_server.py</text>
<rect x="372" y="364" width="100" height="20" rx="4" fill="#030b1a" stroke="#ff4444" stroke-width="1"/>
<text x="422" y="377" text-anchor="middle" font-family="monospace" font-size="7" fill="#ff6666">earthquake.py</text>
<rect x="480" y="364" width="104" height="20" rx="4" fill="#030b1a" stroke="#ffaa44" stroke-width="1"/>
<text x="532" y="377" text-anchor="middle" font-family="monospace" font-size="7" fill="#cc8833">start.sh 一発起動</text>

<!-- GEMINI API -->
<rect x="702" y="178" width="220" height="148" rx="10" fill="url(#ggemini)" stroke="#9966ff" stroke-width="1.5"/>
<rect x="702" y="178" width="220" height="6" rx="4" fill="#9966ff" opacity=".35"/>
<path d="M812,198 L817,213 L832,218 L817,223 L812,238 L807,223 L792,218 L807,213 Z" fill="none" stroke="#aa88ff" stroke-width="1.5"/>
<circle cx="812" cy="218" r="5" fill="#9966ff" opacity=".8"/>
<text x="812" y="254" text-anchor="middle" font-family="monospace" font-size="13" fill="#aa88ff" font-weight="700">GEMINI API</text>
<text x="812" y="272" text-anchor="middle" font-family="monospace" font-size="9" fill="#7755cc">gemini-2.5-flash</text>
<rect x="718" y="282" width="188" height="20" rx="4" fill="#0a0520" stroke="#7755cc" stroke-width="1"/>
<text x="812" y="295" text-anchor="middle" font-family="monospace" font-size="7" fill="#9966ff">generativelanguage.googleapis.com</text>
<text x="812" y="318" text-anchor="middle" font-family="monospace" font-size="9" fill="#ffaa44">🔑 Tier 1 後払い · AI Studio</text>

<!-- WEATHER API -->
<rect x="602" y="468" width="188" height="100" rx="10" fill="url(#gweather)" stroke="#00e5a0" stroke-width="1.5"/>
<rect x="602" y="468" width="188" height="5" rx="3" fill="#00e5a0" opacity=".3"/>
<text x="696" y="496" text-anchor="middle" font-family="monospace" font-size="10" fill="#00e5a0" font-weight="700">WEATHER API</text>
<text x="696" y="512" text-anchor="middle" font-family="monospace" font-size="8" fill="#00a070">Open-Meteo（無料）</text>
<text x="696" y="530" text-anchor="middle" font-family="monospace" font-size="9" fill="#88ffcc">天気・気温・降水確率</text>
<text x="696" y="546" text-anchor="middle" font-family="monospace" font-size="9" fill="#88ffcc">昨日比較・3日予報</text>
<text x="696" y="560" text-anchor="middle" font-family="monospace" font-size="7" fill="#00a070">+ PM2.5 (OpenWeatherMap)</text>

<!-- POLLEN API -->
<rect x="722" y="352" width="178" height="96" rx="10" fill="url(#gpollen)" stroke="#ffdd44" stroke-width="1.5"/>
<rect x="722" y="352" width="178" height="5" rx="3" fill="#ffdd44" opacity=".3"/>
<text x="811" y="378" text-anchor="middle" font-family="monospace" font-size="10" fill="#ffdd44" font-weight="700">POLLEN API</text>
<text x="811" y="394" text-anchor="middle" font-family="monospace" font-size="8" fill="#aa9900">Google Pollen API</text>
<text x="811" y="412" text-anchor="middle" font-family="monospace" font-size="9" fill="#ffeeaa">スギ・ヒノキ・イネ科</text>
<text x="811" y="428" text-anchor="middle" font-family="monospace" font-size="9" fill="#ffeeaa">飛散指数・シーズン判定</text>
<text x="811" y="442" text-anchor="middle" font-family="monospace" font-size="7" fill="#aa9900">Tier 1 · 月数円</text>

<!-- DASHBOARD -->
<rect x="318" y="568" width="296" height="108" rx="10" fill="url(#gdash)" stroke="#ffaa44" stroke-width="1.5"/>
<rect x="318" y="568" width="296" height="5" rx="3" fill="#ffaa44" opacity=".3"/>
<text x="466" y="595" text-anchor="middle" font-family="monospace" font-size="11" fill="#ffaa44" font-weight="700">DASHBOARD APP</text>
<text x="466" y="613" text-anchor="middle" font-family="monospace" font-size="8" fill="#cc7722">http://gemini-pi.local:5000</text>
<rect x="330" y="622" width="56" height="17" rx="4" fill="#1a0a00" stroke="#00e5a0" stroke-width="1"/>
<text x="358" y="634" text-anchor="middle" font-family="monospace" font-size="8" fill="#00e5a0">▶ 起動</text>
<rect x="394" y="622" width="56" height="17" rx="4" fill="#1a0a00" stroke="#ff4466" stroke-width="1"/>
<text x="422" y="634" text-anchor="middle" font-family="monospace" font-size="8" fill="#ff4466">⏹ 停止</text>
<rect x="458" y="622" width="66" height="17" rx="4" fill="#1a0a00" stroke="#ffaa44" stroke-width="1"/>
<text x="491" y="634" text-anchor="middle" font-family="monospace" font-size="8" fill="#ffaa44">🔄 再起動</text>
<rect x="532" y="622" width="70" height="17" rx="4" fill="#1a0a00" stroke="#4dc8ff" stroke-width="1"/>
<text x="567" y="634" text-anchor="middle" font-family="monospace" font-size="8" fill="#4dc8ff">⚡ 本体再起動</text>
<text x="466" y="664" text-anchor="middle" font-family="monospace" font-size="8" fill="#886633">温度・CPU・メモリ監視 / 会話ログ</text>

<!-- P2P EARTHQUAKE -->
<rect x="20" y="468" width="200" height="116" rx="10" fill="url(#geq)" stroke="#ff4444" stroke-width="1.5"/>
<rect x="20" y="468" width="200" height="5" rx="3" fill="#ff4444" opacity=".4"/>
<circle cx="120" cy="500" r="10" fill="#ff0000" opacity=".15"/>
<circle cx="120" cy="500" r="6" fill="#ff4444" opacity=".8"/>
<text x="120" y="526" text-anchor="middle" font-family="monospace" font-size="10" fill="#ff6666" font-weight="700">P2P地震情報</text>
<text x="120" y="542" text-anchor="middle" font-family="monospace" font-size="8" fill="#aa3333">api.p2pquake.net/v2/ws</text>
<text x="120" y="558" text-anchor="middle" font-family="monospace" font-size="9" fill="#ffaaaa">WebSocket リアルタイム</text>
<text x="120" y="574" text-anchor="middle" font-family="monospace" font-size="9" fill="#ffaaaa">福岡県 震度2以上で読上</text>

<!-- SSH -->
<rect x="100" y="60" width="200" height="90" rx="10" fill="url(#gssh)" stroke="#cc88ff" stroke-width="1.5"/>
<rect x="100" y="60" width="200" height="5" rx="3" fill="#cc88ff" opacity=".3"/>
<text x="200" y="88" text-anchor="middle" font-family="monospace" font-size="12" fill="#cc88ff" font-weight="700">SSH 管理</text>
<text x="200" y="108" text-anchor="middle" font-family="monospace" font-size="10" fill="#aa66dd">Mac ターミナル / Termius</text>
<text x="200" y="124" text-anchor="middle" font-family="monospace" font-size="8" fill="#7744aa">ssh user@gemini-pi.local</text>
<text x="200" y="140" text-anchor="middle" font-family="monospace" font-size="7" fill="#6633aa">192.168.xx.xxx</text>

<!-- CONFIG.PY -->
<rect x="220" y="448" width="134" height="90" rx="10" fill="url(#gconfig)" stroke="#8888ff" stroke-width="1.5"/>
<rect x="220" y="448" width="134" height="5" rx="3" fill="#8888ff" opacity=".3"/>
<text x="287" y="474" text-anchor="middle" font-family="monospace" font-size="10" fill="#aaaaff" font-weight="700">config.py</text>
<text x="287" y="492" text-anchor="middle" font-family="monospace" font-size="9" fill="#8888cc">APIキー一元管理</text>
<text x="287" y="508" text-anchor="middle" font-family="monospace" font-size="9" fill="#8888cc">場所・音声設定</text>
<text x="287" y="524" text-anchor="middle" font-family="monospace" font-size="7" fill="#5555aa">.gitignore 除外済</text>

<!-- MORNING -->
<rect x="388" y="60" width="184" height="60" rx="10" fill="#041a10" stroke="#00e5a0" stroke-width="1.5"/>
<rect x="388" y="60" width="184" height="4" rx="3" fill="#00e5a0" opacity=".3"/>
<text x="480" y="83" text-anchor="middle" font-family="monospace" font-size="10" fill="#00e5a0" font-weight="700">朝の天気アナウンス</text>
<text x="480" y="100" text-anchor="middle" font-family="monospace" font-size="9" fill="#88ffcc">毎朝 7:30 自動読み上げ</text>
<text x="480" y="114" text-anchor="middle" font-family="monospace" font-size="9" fill="#88ffcc">天気・花粉・PM2.5・服装</text>

<!-- INTERNET -->
<ellipse cx="870" cy="510" rx="55" ry="22" fill="none" stroke="#4dc8ff" stroke-width="1" stroke-dasharray="4 3" opacity=".2"/>
<text x="870" y="515" text-anchor="middle" font-family="monospace" font-size="8" fill="#4dc8ff" opacity=".2">INTERNET</text>

<!-- LEGEND -->
<g transform="translate(20,660)">
  <line x1="0" y1="10" x2="24" y2="10" stroke="#ffaa44" stroke-width="2" stroke-dasharray="6 4"/>
  <text x="30" y="14" font-family="monospace" font-size="8" fill="#ffaa44">音声入力</text>
  <line x1="85" y1="10" x2="109" y2="10" stroke="#4dc8ff" stroke-width="2" stroke-dasharray="6 4"/>
  <text x="115" y="14" font-family="monospace" font-size="8" fill="#4dc8ff">データ送信</text>
  <line x1="200" y1="10" x2="224" y2="10" stroke="#00e5a0" stroke-width="2" stroke-dasharray="6 4"/>
  <text x="230" y="14" font-family="monospace" font-size="8" fill="#00e5a0">返答・再生</text>
  <line x1="315" y1="10" x2="339" y2="10" stroke="#cc88ff" stroke-width="1.5" stroke-dasharray="4 5"/>
  <text x="345" y="14" font-family="monospace" font-size="8" fill="#cc88ff">SSH管理</text>
  <line x1="410" y1="10" x2="434" y2="10" stroke="#ff4444" stroke-width="2" stroke-dasharray="6 4"/>
  <text x="440" y="14" font-family="monospace" font-size="8" fill="#ff4444">地震速報</text>
  <line x1="510" y1="10" x2="534" y2="10" stroke="#ffdd44" stroke-width="1.5" stroke-dasharray="4 5"/>
  <text x="540" y="14" font-family="monospace" font-size="8" fill="#ffdd44">花粉情報</text>
  <line x1="610" y1="10" x2="634" y2="10" stroke="#8888ff" stroke-width="1.5" stroke-dasharray="4 5"/>
  <text x="640" y="14" font-family="monospace" font-size="8" fill="#8888ff">設定読込</text>
</g>
</svg>
